<svg width="132" height="88" viewBox="0 0 132 88" fill="none" xmlns="http://www.w3.org/2000/svg">
<g clip-path="url(#clip0_912_242)">
<path d="M102.353 51.9757C102.858 61.2776 84.6718 80.1921 62.2563 73.1912C51.8311 69.9349 52.7142 64.5301 44.7868 57.4071C40.0617 53.1617 33.2725 49.9514 31.3843 43.7804C29.7531 38.4539 30.7533 32.7287 33.5814 29.0048C39.9416 20.63 52.7815 14.8953 65.433 28.0905C78.0844 41.2856 101.048 27.9853 102.353 51.9757Z" fill="white"/>
<path d="M94.4616 28.1483C92.7951 31.1225 89.1452 31.5311 83.2979 30.9659C78.9004 30.5401 74.8901 30.2105 70.4921 27.8127C67.4139 26.1356 64.9773 23.8665 63.1988 21.6627C61.2716 19.2752 58.5816 16.5505 59.9003 13.8436C61.7125 10.125 72.1923 6.99307 82.3685 12.1147C93.5469 17.7424 96.0919 25.2413 94.4616 28.1483Z" fill="white"/>
<path d="M44.7152 75.8067C40.6276 70.0882 36.4413 64.0105 30.9608 61.0169C25.3077 57.9276 24.2652 59.8315 23.8739 62.8585C23.4826 65.8855 25.2266 73.0575 32.9414 77.138C40.6583 81.2197 48.5399 81.1586 44.7152 75.8067Z" fill="white"/>
<path d="M103.866 37.1785C100.973 37.8638 97.9136 35.4105 97.9136 35.4105C97.9136 35.4105 99.5463 31.8475 102.44 31.1643C105.333 30.4789 108.391 32.9302 108.391 32.9302C108.391 32.9302 106.759 36.4932 103.866 37.1785Z" fill="white"/>
<path d="M108.661 63.9077C111.284 65.714 115.291 64.4513 115.291 64.4513C115.291 64.4513 115.042 60.2602 112.418 58.4555C109.795 56.6491 105.791 57.91 105.791 57.91C105.791 57.91 106.039 62.1012 108.661 63.9077Z" fill="white"/>
<path d="M19.6482 45.3021C22.4914 48.1958 27.8082 47.5857 27.8082 47.5857C27.8082 47.5857 28.5117 42.2839 25.6658 39.3917C22.8227 36.498 17.5085 37.1064 17.5085 37.1064C17.5085 37.1064 16.8049 42.4082 19.6482 45.3021Z" fill="white"/>
<path d="M106.685 46.3231C105.518 46.3231 104.572 47.2279 104.572 48.3441C104.572 49.4603 105.518 50.3652 106.685 50.3652C107.852 50.3652 108.798 49.4603 108.798 48.3441C108.798 47.2279 107.852 46.3231 106.685 46.3231Z" fill="#2F54EB"/>
<path d="M35.5268 62.8231C33.9539 62.8231 32.6788 64.057 32.6788 65.5791C32.6788 67.1012 33.9539 68.3351 35.5268 68.3351C37.0997 68.3351 38.3748 67.1012 38.3748 65.5791C38.3748 64.057 37.0997 62.8231 35.5268 62.8231Z" fill="#2F54EB"/>
<path d="M33.8664 30.3219C32.721 30.3219 31.7924 29.3933 31.7924 28.2479C31.7924 27.1024 32.721 26.1738 33.8664 26.1738C35.0119 26.1738 35.9404 27.1024 35.9404 28.2479C35.9404 29.3933 35.0119 30.3219 33.8664 30.3219Z" fill="#2F54EB"/>
<path d="M79.1972 22.9498C78.1317 22.9498 77.268 22.0861 77.268 21.0206C77.268 19.9551 78.1317 19.0913 79.1972 19.0913C80.2627 19.0913 81.1265 19.9551 81.1265 21.0206C81.1265 22.0861 80.2627 22.9498 79.1972 22.9498Z" fill="#2F54EB"/>
<path d="M102.451 68.3006C101.493 68.3006 100.716 67.5238 100.716 66.5655C100.716 65.6073 101.493 64.8305 102.451 64.8305C103.41 64.8305 104.187 65.6073 104.187 66.5655C104.187 67.5238 103.41 68.3006 102.451 68.3006Z" fill="white"/>
<path d="M29.8613 54.7928C28.8534 54.7928 28.0363 53.9757 28.0363 52.9678C28.0363 51.9599 28.8534 51.1428 29.8613 51.1428C30.8692 51.1428 31.6863 51.9599 31.6863 52.9678C31.6863 53.9757 30.8692 54.7928 29.8613 54.7928Z" fill="white"/>
<path d="M49.8857 75.4337C49.3891 75.4337 48.9865 75.0312 48.9865 74.5345C48.9865 74.0379 49.3891 73.6353 49.8857 73.6353C50.3823 73.6353 50.7849 74.0379 50.7849 74.5345C50.7849 75.0312 50.3823 75.4337 49.8857 75.4337Z" fill="white"/>
<path d="M93.3453 22.9739C92.5873 22.9739 91.9728 22.3594 91.9728 21.6014C91.9728 20.8433 92.5873 20.2289 93.3453 20.2289C94.1033 20.2289 94.7178 20.8433 94.7178 21.6014C94.7178 22.3594 94.1033 22.9739 93.3453 22.9739Z" fill="white"/>
<path d="M35.7067 42.008C35.835 42.487 35.5508 42.9792 35.0719 43.1076C34.5929 43.2359 34.1007 42.9517 33.9723 42.4727C33.844 41.9938 34.1282 41.5016 34.6071 41.3732C35.0861 41.2449 35.5783 41.5291 35.7067 42.008Z" fill="white"/>
<path d="M50.6519 21.4799C49.9923 21.4799 49.4576 20.9452 49.4576 20.2856C49.4576 19.626 49.9923 19.0913 50.6519 19.0913C51.3115 19.0913 51.8462 19.626 51.8462 20.2856C51.8462 20.9452 51.3115 21.4799 50.6519 21.4799Z" fill="white"/>
<path d="M92.1887 46.0579C91.6813 46.0579 91.27 45.7288 91.27 45.3229C91.27 44.917 91.6813 44.588 92.1887 44.588C92.6961 44.588 93.1074 44.917 93.1074 45.3229C93.1074 45.7288 92.6961 46.0579 92.1887 46.0579Z" fill="white"/>
<path d="M74.999 12.353C75.2661 13.3497 74.6746 14.3742 73.6779 14.6413C72.6812 14.9083 71.6567 14.3168 71.3896 13.3201C71.1225 12.3234 71.714 11.2989 72.7107 11.0318C73.7074 10.7647 74.732 11.3562 74.999 12.353Z" fill="white"/>
<path d="M113.539 37.8406H113.563C113.705 39.857 115.205 39.8881 115.205 39.8881C115.205 39.8881 113.551 39.9203 113.551 42.2503C113.551 39.9203 111.898 39.8881 111.898 39.8881C111.898 39.8881 113.397 39.857 113.539 37.8406ZM44.358 10.0794H44.3993C44.6444 13.6082 47.2271 13.6624 47.2271 13.6624C47.2271 13.6624 44.3792 13.7189 44.3792 17.7964C44.3792 13.7191 41.5312 13.6624 41.5312 13.6624C41.5312 13.6624 44.1129 13.6082 44.358 10.0794Z" fill="white"/>
<path fill-rule="evenodd" clip-rule="evenodd" d="M58.4454 22.2184L60.1593 18.3354C61.2002 15.9739 63.5244 14.4524 66.0893 14.4524C68.6542 14.4524 70.9785 15.9739 72.0194 18.3354L73.7333 22.2184C74.3412 23.5937 75.3674 24.7422 76.6658 25.5006C77.9682 26.2582 79.4781 26.5813 80.9764 26.423L85.1699 25.9733C87.72 25.7016 90.1899 26.9688 91.4713 29.2065C92.7545 31.4428 92.609 34.231 91.1 36.3194L88.6172 39.7559C87.7324 40.991 87.2602 42.4741 87.2682 43.9934C87.2674 45.5086 87.7439 46.9856 88.6301 48.2146L91.113 51.6512C92.6221 53.7395 92.7676 56.5277 91.4844 58.7641C90.203 61.0017 87.7331 62.2688 85.1828 61.9972L80.9895 61.5475C79.4911 61.3892 77.9813 61.7122 76.6788 62.4697C75.3778 63.2324 74.3514 64.3871 73.7464 65.7686L72.0194 69.6516C70.9785 72.013 68.6542 73.5346 66.0893 73.5346C63.5244 73.5346 61.2002 72.013 60.1593 69.6516L58.4454 65.7686C57.8404 64.3871 56.8139 63.2324 55.5129 62.4697C54.2105 61.7122 52.7006 61.3892 51.2022 61.5475L46.9958 61.9972C44.4456 62.2688 41.9759 61.0017 40.6943 58.7641C39.4111 56.5277 39.5568 53.7395 41.0657 51.6512L43.5486 48.2146C44.4348 46.9856 44.9113 45.5086 44.9105 43.9934C44.9113 42.4782 44.4348 41.0013 43.5486 39.7723L41.0657 36.3358C39.5568 34.2474 39.4111 31.4593 40.6943 29.2229C41.977 26.9865 44.4459 25.7198 46.9958 25.9898L51.1892 26.4395C52.6876 26.5977 54.1974 26.2746 55.4999 25.5171C56.8058 24.7566 57.837 23.6017 58.4454 22.2184Z" fill="#2F54EB"/>
<path fill-rule="evenodd" clip-rule="evenodd" d="M66.0894 59.8073C57.5064 59.8073 50.5483 52.7271 50.5483 43.9934C50.5483 35.2597 57.5064 28.1797 66.0894 28.1797C74.6725 28.1797 81.6305 35.2597 81.6305 43.9934C81.6305 52.7271 74.6725 59.8073 66.0894 59.8073Z" fill="white"/>
<path fill-rule="evenodd" clip-rule="evenodd" d="M63.0813 31.0577C62.888 31.2717 62.7162 31.5042 62.5684 31.7519C61.3606 33.7684 60.4778 35.9423 59.9205 38.1888C58.1442 37.9303 56.4196 37.5584 54.7921 37.0729C56.6126 34.0878 59.5796 31.8787 63.0813 31.0577ZM53.9358 38.8172C55.7085 39.3647 57.5914 39.7825 59.5321 40.0701C59.0944 42.7191 59.0943 45.4221 59.5318 48.0712C57.6081 48.3564 55.7414 48.7695 53.9825 49.3101C53.2617 47.6753 52.8616 45.8675 52.8616 43.9663C52.8616 42.136 53.2323 40.3924 53.903 38.8065C53.9138 38.8102 53.9248 38.8139 53.9358 38.8172ZM54.9018 51.0363C56.691 53.8695 59.5241 55.9777 62.8606 56.8212C62.7549 56.6837 62.6574 56.5402 62.5684 56.3914C61.3602 54.3742 60.4774 52.1997 59.9199 49.9525C58.1837 50.2053 56.4967 50.5666 54.9018 51.0363ZM61.8395 49.7191C62.3541 51.7035 63.1455 53.6225 64.2139 55.4061L64.214 55.4063C65.1018 56.8891 67.1396 56.8891 68.0273 55.4063L68.0275 55.4061C69.0957 53.6225 69.8872 51.7035 70.4019 49.7191C67.5545 49.4418 64.6869 49.4418 61.8395 49.7191ZM72.3213 49.9526C71.7638 52.1997 70.881 54.3742 69.6729 56.3914C69.584 56.54 69.4865 56.6834 69.3811 56.8207C72.717 55.9769 75.5494 53.8688 77.3385 51.0358C75.7438 50.5663 74.0573 50.2052 72.3213 49.9526ZM78.2576 49.3095C76.499 48.7692 74.6326 48.3563 72.7095 48.0712C73.147 45.422 73.1469 42.7189 72.7091 40.0698C74.6488 39.782 76.5305 39.3646 78.3021 38.8172C78.3138 38.8136 78.3252 38.8099 78.3367 38.8058C79.0074 40.392 79.3785 42.1359 79.3785 43.9663C79.3785 45.8674 78.9784 47.6749 78.2576 49.3095ZM70.8049 47.8323C67.6902 47.5136 64.5511 47.5135 61.4364 47.8321C61.0167 45.342 61.0168 42.7991 61.4367 40.309C64.526 40.6276 67.7155 40.6276 70.8045 40.3088C71.2245 42.799 71.2247 45.342 70.8049 47.8323ZM61.8399 38.4221C64.687 38.6994 67.5542 38.6993 70.4013 38.4218C69.8866 36.4385 69.0954 34.5202 68.0276 32.7375C67.1383 31.2536 65.1015 31.2545 64.214 32.737L64.2139 32.7372C63.146 34.5201 62.3547 36.4385 61.8399 38.4221ZM72.3207 38.1883C74.0966 37.9299 75.8206 37.558 77.4475 37.0723C75.6272 34.088 72.6607 31.8792 69.1598 31.058C69.3531 31.2717 69.5249 31.504 69.6727 31.7514L69.6728 31.7517C70.8806 33.7682 71.7632 35.942 72.3207 38.1883Z" fill="#2F54EB"/>
</g>
<defs>
<clipPath id="clip0_912_242">
<rect width="132" height="88" fill="white"/>
</clipPath>
</defs>
</svg>
